<svg width="461" height="376" viewBox="0 0 461 376" fill="none" xmlns="http://www.w3.org/2000/svg">
<g clip-path="url(#clip0)">
<path d="M455.117 204.24L203.153 275.77L433.037 146.086C422.557 126.862 409.4 109.228 393.962 93.7128L170.922 216.61L357.645 63.9598C330.864 46.2229 300.652 34.3318 268.976 29.0609L165.55 201.943L234.051 25.958C233.031 25.9447 232.011 25.9294 230.988 25.9294C103.956 25.9294 0.976729 129.031 0.976729 256.213C0.910073 298.279 12.4072 339.552 34.2088 375.511H427.768C458.757 324.144 468.566 262.719 455.117 204.24Z" fill="#F2F2F2"/>
<path d="M397.515 193.631H64.4619V375.511H397.515V193.631Z" fill="#3F3D56"/>
<path d="M331.588 214.655H123.064V215.632H331.588V214.655Z" fill="#2F2E41"/>
<path d="M179.118 263.365H103.041V272.021H179.118V263.365Z" fill="#6C63FF"/>
<path d="M230.988 278.079H103.041V283.273H230.988V278.079Z" fill="#F2F2F2"/>
<path d="M224.072 289.331H103.041V294.525H224.072V289.331Z" fill="#F2F2F2"/>
<path d="M191.221 300.583H103.041V305.776H191.221V300.583Z" fill="#F2F2F2"/>
<path d="M413.142 358.853C413.142 343.126 405.171 330.376 395.339 330.376C389.159 330.376 383.716 335.415 380.523 343.062C379.445 342.613 378.289 342.381 377.121 342.378C374.145 342.378 371.393 343.905 369.149 346.489C366.272 336.955 360.17 330.376 353.107 330.376C346.504 330.376 340.744 336.131 337.671 344.672C335.963 343.23 333.811 342.42 331.577 342.378C324.031 342.378 317.914 352.163 317.914 364.232C317.883 368.256 318.613 372.249 320.067 376H409.552C411.804 371.23 413.142 365.292 413.142 358.853Z" fill="#6C63FF"/>
<path d="M98.0624 63.8964C110.741 63.8964 121.019 53.6061 121.019 40.9122C121.019 28.2184 110.741 17.928 98.0624 17.928C85.3836 17.928 75.1053 28.2184 75.1053 40.9122C75.1053 53.6061 85.3836 63.8964 98.0624 63.8964Z" fill="#FF6584"/>
<path d="M83.538 84.4844C84.4149 84.1076 85.3915 84.0314 86.3161 84.2675C87.2407 84.5037 88.0615 85.0389 88.651 85.7901C90.69 88.3385 93.4723 93.9305 92.4042 104.9L88.2675 147.384L87.609 190.208C87.609 190.208 81.3865 209.952 72.2753 209.765C63.1642 209.579 79.8213 190.854 79.8213 190.854C79.8213 190.854 77.5113 156.881 78.4607 147.13C79.3458 138.04 70.5845 90.1251 83.538 84.4844Z" fill="#FFB8B8"/>
<path d="M94.7716 65.0468L99.9946 79.2188L92.5283 81.5278L91.4799 102.094L109.992 92.1108L119.315 81.8251L120.479 73.932C120.479 73.932 113.289 72.6836 110.675 56.7878L94.7716 65.0468Z" fill="#FFB8B8"/>
<path d="M59.7219 183.449C59.7219 183.449 27.0605 216.28 35.4767 233.592C43.8929 250.903 84.9665 311.503 84.9665 311.503L95.9545 297.493C95.9545 297.493 85.154 289.631 80.124 271.207C75.0939 252.783 63.709 240.058 60.3488 235.529C56.9886 231 91.8988 199.307 88.8151 191.221C85.7314 183.135 59.7219 183.449 59.7219 183.449Z" fill="#FFB8B8"/>
<path opacity="0.1" d="M59.7219 183.449C59.7219 183.449 27.0605 216.28 35.4767 233.592C43.8929 250.903 84.9665 311.503 84.9665 311.503L95.9545 297.493C95.9545 297.493 85.154 289.631 80.124 271.207C75.0939 252.783 63.709 240.058 60.3488 235.529C56.9886 231 91.8988 199.307 88.8151 191.221C85.7314 183.135 59.7219 183.449 59.7219 183.449Z" fill="black"/>
<path d="M80.2446 301.499C80.2446 301.499 76.8324 308.254 77.8603 310.949C78.8882 313.645 84.2782 329.206 84.2782 329.206C84.2782 329.206 78.5392 351.747 82.7028 351.245C86.8664 350.744 101.934 335.537 101.267 329.979L99.3463 314L104.011 317.667L109.948 308.494L101.673 298.213C101.673 298.213 92.7874 288.712 90.0116 289.046C87.2359 289.38 80.2446 301.499 80.2446 301.499Z" fill="#2F2E41"/>
<path d="M86.7333 191.472L84.542 196.669L75.3389 237.248C75.3389 237.248 71.6762 241.918 72.8191 257.286C73.962 272.654 54.3554 332.106 54.3554 332.106L53.6929 344.167L65.4898 342.746L73.5351 327.681C73.5351 327.681 76.5558 311.811 85.3784 297.357C94.2011 282.903 94.1901 247.663 94.1901 247.663L117.934 193.352L99.2501 184.326L86.7333 191.472Z" fill="#FFB8B8"/>
<path d="M58.3781 324.573C58.3781 324.573 54.8249 324.296 54.298 325.769C53.771 327.242 43.1485 356.01 43.1485 356.01C43.1485 356.01 22.9464 375.359 32.8285 375.578C42.7106 375.797 59.2815 373.096 62.0832 367.12C64.885 361.144 68.1302 353 68.1302 353L69.132 361.338L76.9583 356.166C76.9583 356.166 81.3354 328.151 76.2274 326.652C71.1194 325.153 58.3781 324.573 58.3781 324.573Z" fill="#2F2E41"/>
<path d="M70.2924 165.965C70.2924 165.965 62.0227 173.304 62.8001 173.915C63.5775 174.526 58.1096 175.89 59.1375 178.585C60.1654 181.281 54.5044 186.896 57.2801 186.562C60.0559 186.228 70.8249 182.111 82.7367 193.363L84.8185 193.112L84.5421 196.669C84.5421 196.669 93.1717 186.467 115.467 202.107C115.467 202.107 122.849 199.103 121.822 196.408C120.794 193.712 133.811 190.735 126.783 173.256C119.755 155.778 97.9923 156.285 97.9923 156.285L70.2924 165.965Z" fill="#2F2E41"/>
<path d="M115.094 75.9903C115.094 75.9903 118.673 70.6254 120.839 71.0694C123.004 71.5134 134.843 71.2455 136.732 75.2469C138.62 79.2482 129.626 120.757 131.071 126.927C132.517 133.096 140.192 179.394 133.587 183.009C126.982 186.624 119.259 169.229 119.259 169.229C119.259 169.229 98.4933 160.453 80.8684 166.1C63.2436 171.747 68.6541 164.048 68.6541 164.048C68.6541 164.048 81.2804 151.954 79.3601 135.975C77.4398 119.996 76.5789 118.69 79.824 110.546C79.824 110.546 80.403 97.7895 79.9855 94.3157C79.5681 90.8419 76.9853 86.9241 78.9001 85.2839C80.815 83.6436 100.689 79.1352 100.689 79.1352C100.689 79.1352 90.6135 83.1681 95.1946 86.1403C99.7757 89.1125 115.094 75.9903 115.094 75.9903Z" fill="#3F3D56"/>
<path d="M97.4324 68.8341C106.697 68.8341 114.207 61.315 114.207 52.0397C114.207 42.7644 106.697 35.2453 97.4324 35.2453C88.1681 35.2453 80.6579 42.7644 80.6579 52.0397C80.6579 61.315 88.1681 68.8341 97.4324 68.8341Z" fill="#FFB8B8"/>
<path d="M132.692 73.3022C131.807 72.9454 130.828 72.8912 129.909 73.1482C128.99 73.4051 128.182 73.9588 127.609 74.7231C125.628 77.3168 122.973 82.9703 124.288 93.9127L129.381 136.293L131.004 179.091C131.004 179.091 129.956 199.657 139.06 199.265C148.165 198.873 138.804 179.561 138.804 179.561C138.804 179.561 140.348 145.544 139.179 135.817C138.09 126.75 145.769 78.6489 132.692 73.3022Z" fill="#FFB8B8"/>
<path d="M110.045 0C108.31 2.48052 105.739 4.25027 102.805 4.98354C97.7412 6.34097 102.763 13.9587 102.763 13.9587C102.763 13.9587 100.937 11.1886 103.571 8.25502C106.205 5.32144 110.444 3.31581 110.045 0Z" fill="#FF6584"/>
<path d="M101.866 22.1915C105.399 22.1915 108.264 19.3237 108.264 15.7861C108.264 12.2485 105.399 9.38065 101.866 9.38065C98.3324 9.38065 95.468 12.2485 95.468 15.7861C95.468 19.3237 98.3324 22.1915 101.866 22.1915Z" fill="#FF6584"/>
<path d="M110.034 21.1549C104.819 19.1798 96.134 18.1783 91.6661 18.8629L92.2788 14.3832C96.5742 16.6058 105.219 17.6503 110.647 16.6752L110.034 21.1549Z" fill="#3F3D56"/>
<path d="M99.9419 22.7584C99.9419 22.7584 93.4053 33.6439 78.2054 37.7189C63.0056 41.7938 78.0813 64.6621 78.0813 64.6621C78.0813 64.6621 72.5992 56.3463 80.5064 47.5398C88.4135 38.7332 101.138 32.7124 99.9419 22.7584Z" fill="#FF6584"/>
<path d="M100.461 22.0969C100.461 22.0969 106.74 37.0486 113.634 38.4622C120.528 39.8758 120.005 63.501 109.224 67.0437C109.224 67.0437 117.086 53.1936 110.366 43.905C103.646 34.6163 99.4018 27.2735 100.461 22.0969Z" fill="#FF6584"/>
<path d="M387.26 199.498H365.284V207.81H387.26V199.498Z" fill="#6C63FF"/>
<path opacity="0.4" d="M342.329 307.732C357.704 307.732 370.167 295.253 370.167 279.86C370.167 264.468 357.704 251.989 342.329 251.989C326.954 251.989 314.491 264.468 314.491 279.86C314.491 295.253 326.954 307.732 342.329 307.732Z" fill="#6C63FF"/>
<path opacity="0.4" d="M290.807 312.724C301.593 312.724 310.336 303.97 310.336 293.172C310.336 282.374 301.593 273.621 290.807 273.621C280.022 273.621 271.279 282.374 271.279 293.172C271.279 303.97 280.022 312.724 290.807 312.724Z" fill="#6C63FF"/>
</g>
<defs>
<clipPath id="clip0">
<rect width="461" height="376" fill="white"/>
</clipPath>
</defs>
</svg>
