<svg id="Capa_1" enable-background="new 0 0 512 512" height="512" viewBox="0 0 512 512" width="512" xmlns="http://www.w3.org/2000/svg" xmlns:xlink="http://www.w3.org/1999/xlink"><linearGradient id="SVGID_1_" gradientUnits="userSpaceOnUse" x1="215.709" x2="852.345" y1="256.002" y2="256.002"><stop offset=".0007011211" stop-color="#fff0d5"/><stop offset=".5112" stop-color="#ffdfff"/><stop offset="1" stop-color="#d9ceff"/></linearGradient><path d="m408.228 154.264c-23.697-9.236-43.717-26.089-55.961-48.381-20.59-37.487-60.43-62.898-106.221-62.898-47.53 0-88.646 27.377-108.477 67.219-12.146 24.401-32.814 43.56-58.09 53.761-37.348 15.075-68.702 49.524-78.652 103.383-1.092 5.91-1.108 11.986-.016 17.896 15.448 83.572 82.399 120.435 143.334 110.66 34.126-5.474 68.672 5.909 93.967 29.462 51.434 47.892 133.884 62.907 213.923 11.57 9.377-6.014 21.957-18.634 27.966-28.015 68.966-107.67 17.878-219.715-71.773-254.657z" fill="url(#SVGID_1_)"/><path d="m441 92.484h-119.221c-4.676-6.496-10.284-12.277-16.639-17.132-6.616-5.055-16.15-.435-16.15 7.891v9.241h-65.98v-9.239c0-8.309-9.518-12.957-16.123-7.914-6.366 4.86-11.984 10.647-16.667 17.153h-119.22c-8.28 0-15 6.72-15 15v254.25c0 8.28 6.72 15 15 15h370c8.28 0 15-6.72 15-15v-254.25c0-8.28-6.72-15-15-15z" fill="#590bb2" opacity=".1"/><path d="m312.71 470.441h-113.421l22.682-89.904h68.057z" fill="#afabc6"/><path d="m297.928 411.839h-83.857l7.9-31.302h68.057z" fill="#8e8ca8"/><path d="m456 128.487v254.25c0 8.28-6.72 15-15 15h-370c-8.28 0-15-6.72-15-15v-254.25c0-8.28 6.72-15 15-15h370c8.28 0 15 6.72 15 15z" fill="#f5f4f9"/><path d="m456 205.508v-77.021c0-8.28-6.72-15-15-15h-370c-8.28 0-15 6.72-15 15v77.021z" fill="#ffd5b8"/><path d="m227.5 207.463h57v139.88h-57z" fill="#afabc6"/><path d="m284.5 207.463v42.98c-8.87 3.35-18.47 5.17-28.5 5.17-10.01 0-19.62-1.87-28.5-5.27v-42.88z" fill="#8e8ca8"/><path d="m456 161.659v-33.171c0-8.284-6.716-15-15-15h-370c-8.284 0-15 6.716-15 15v33.171z" fill="#ffa052"/><path d="m56 347.345v35.39c0 8.284 6.716 15 15 15h370c8.284 0 15-6.716 15-15v-35.39z" fill="#cecae0"/><path d="m337 160.744c0 44.739-36.259 80.999-80.998 81-44.763.001-81.573-37.307-80.996-82.066.333-25.829 12.762-48.751 31.88-63.347 6.605-5.042 16.123-.395 16.123 7.914v34.498c0 5.523 4.477 10 10 10h45.98c5.523 0 10-4.477 10-10v-34.501c0-8.326 9.534-12.946 16.15-7.891 19.367 14.798 31.861 38.141 31.861 64.393z" fill="#afabc6"/><g fill="#590bb2"><path d="m94.082 142.646c2.762 0 5-2.238 5-5v-.146c0-2.762-2.238-5-5-5s-5 2.238-5 5v.146c0 2.762 2.238 5 5 5z"/><path d="m113.407 142.646c2.762 0 5-2.238 5-5v-.146c0-2.762-2.238-5-5-5s-5 2.238-5 5v.146c0 2.762 2.239 5 5 5z"/><path d="m132.731 142.646c2.762 0 5-2.238 5-5v-.146c0-2.762-2.238-5-5-5s-5 2.238-5 5v.146c0 2.762 2.239 5 5 5z"/><path d="m441 108.487h-116.649c-4.587-5.968-10-11.39-16.175-16.107-4.606-3.52-10.683-4.113-15.862-1.556-5.134 2.539-8.323 7.681-8.323 13.419v4.244h-33.45c-2.762 0-5 2.238-5 5s2.238 5 5 5h33.45v20.257c0 2.757-2.243 5-5 5h-45.98c-2.757 0-5-2.243-5-5v-34.498c0-5.74-3.192-10.886-8.332-13.428-5.17-2.558-11.232-1.967-15.824 1.539-6.177 4.716-11.596 10.147-16.191 16.13h-116.664c-11.028 0-20 8.972-20 20v254.248c0 11.028 8.972 20 20 20h140.214l-15.819 62.701h-15.329c-2.762 0-5 2.238-5 5s2.238 5 5 5h151.867c2.762 0 5-2.238 5-5s-2.238-5-5-5h-15.33l-15.819-62.701h140.216c11.028 0 20-8.972 20-20v-254.248c0-11.029-8.972-20-20-20zm-380 233.858v-175.686h109.228c1.407 20.38 10.026 39.471 24.727 54.361 8.055 8.16 17.399 14.505 27.545 18.858v102.467zm171.5-98.916c7.561 2.17 15.448 3.315 23.502 3.315 8.147 0 16.023-1.164 23.498-3.291v76.349c0 2.762 2.238 5 5 5s5-2.238 5-5v-79.853c29.099-12.354 50.02-40.299 52.274-73.29h109.226v175.687h-218.5zm208.5-124.942c5.514 0 10 4.486 10 10v28.172h-109.103c-.631-13.633-4.407-26.638-10.923-38.172zm-231.078-18.181c.922-.704 1.988-1.063 3.067-1.063.761 0 1.527.178 2.255.537.831.411 2.766 1.67 2.766 4.465v34.498c0 8.271 6.729 15 15 15h45.98c8.271 0 15-6.729 15-15v-34.501c0-2.791 1.927-4.045 2.756-4.454 1.769-.874 3.772-.675 5.358.536 19 14.517 29.896 36.54 29.896 60.42 0 41.905-34.093 75.999-75.998 76-20.294.001-39.447-8.078-53.931-22.749-14.49-14.678-22.327-33.945-22.064-54.252.303-23.492 11.206-45.156 29.915-59.437zm-138.922 18.181h110.044c-6.517 11.538-10.31 24.547-10.944 38.172h-109.1v-28.172c0-5.514 4.486-10 10-10zm235.291 346.949h-100.583l15.818-62.701h68.945zm134.709-72.701h-370c-5.514 0-10-4.486-10-10v-30.39h390v30.39c0 5.514-4.486 10-10 10z"/></g><path d="m160.798 244.941h-14.981c-2.829 0-5.123-2.294-5.123-5.123s2.293-5.123 5.123-5.123h14.981c2.829 0 5.123 2.294 5.123 5.123s-2.293 5.123-5.123 5.123z" fill="#ddd9e4"/><path d="m186.684 244.941h-6.577c-2.829 0-5.123-2.294-5.123-5.123s2.293-5.123 5.123-5.123h6.577c2.829 0 5.123 2.294 5.123 5.123s-2.293 5.123-5.123 5.123z" fill="#ffbe92"/><path d="m186.684 265.26h-40.866c-2.829 0-5.123-2.294-5.123-5.123s2.293-5.123 5.123-5.123h40.866c2.829 0 5.123 2.294 5.123 5.123s-2.293 5.123-5.123 5.123z" fill="#ddd9e4"/><path d="m99.504 260.511c-1.326 0-2.598-.527-3.535-1.464l-6.978-6.978c-1.953-1.953-1.953-5.119 0-7.071 1.951-1.952 5.119-1.952 7.07 0l3.442 3.442 12.28-12.28c1.951-1.952 5.119-1.952 7.07 0 1.953 1.953 1.953 5.119 0 7.071l-15.815 15.816c-.936.937-2.208 1.464-3.534 1.464z" fill="#b557ff"/><path d="m160.798 299.793h-14.981c-2.829 0-5.123-2.294-5.123-5.123s2.293-5.123 5.123-5.123h14.981c2.829 0 5.123 2.294 5.123 5.123s-2.293 5.123-5.123 5.123z" fill="#ddd9e4"/><path d="m186.684 299.793h-6.577c-2.829 0-5.123-2.294-5.123-5.123s2.293-5.123 5.123-5.123h6.577c2.829 0 5.123 2.294 5.123 5.123s-2.293 5.123-5.123 5.123z" fill="#ffbe92"/><path d="m186.684 320.112h-40.866c-2.829 0-5.123-2.294-5.123-5.123s2.293-5.123 5.123-5.123h40.866c2.829 0 5.123 2.294 5.123 5.123 0 2.83-2.293 5.123-5.123 5.123z" fill="#ddd9e4"/><path d="m99.504 315.363c-1.326 0-2.598-.527-3.535-1.464l-6.978-6.978c-1.953-1.953-1.953-5.119 0-7.071 1.951-1.952 5.119-1.952 7.07 0l3.442 3.442 12.28-12.28c1.951-1.952 5.119-1.952 7.07 0 1.953 1.953 1.953 5.119 0 7.071l-15.815 15.816c-.936.937-2.208 1.464-3.534 1.464z" fill="#b557ff"/><path d="m393.465 244.941h-14.981c-2.829 0-5.123-2.294-5.123-5.123s2.293-5.123 5.123-5.123h14.981c2.829 0 5.123 2.294 5.123 5.123s-2.294 5.123-5.123 5.123z" fill="#ddd9e4"/><path d="m419.351 244.941h-6.577c-2.829 0-5.123-2.294-5.123-5.123s2.293-5.123 5.123-5.123h6.577c2.829 0 5.123 2.294 5.123 5.123s-2.294 5.123-5.123 5.123z" fill="#ffbe92"/><path d="m419.351 265.26h-40.866c-2.829 0-5.123-2.294-5.123-5.123s2.293-5.123 5.123-5.123h40.866c2.829 0 5.123 2.294 5.123 5.123s-2.294 5.123-5.123 5.123z" fill="#ddd9e4"/><path d="m332.171 260.511c-1.326 0-2.598-.527-3.535-1.464l-6.978-6.978c-1.953-1.953-1.953-5.119 0-7.071 1.951-1.952 5.119-1.952 7.07 0l3.442 3.442 12.28-12.28c1.951-1.952 5.119-1.952 7.07 0 1.953 1.953 1.953 5.119 0 7.071l-15.815 15.816c-.937.937-2.208 1.464-3.534 1.464z" fill="#b557ff"/><path d="m393.465 299.793h-14.981c-2.829 0-5.123-2.294-5.123-5.123s2.293-5.123 5.123-5.123h14.981c2.829 0 5.123 2.294 5.123 5.123s-2.294 5.123-5.123 5.123z" fill="#ddd9e4"/><path d="m419.351 299.793h-6.577c-2.829 0-5.123-2.294-5.123-5.123s2.293-5.123 5.123-5.123h6.577c2.829 0 5.123 2.294 5.123 5.123s-2.294 5.123-5.123 5.123z" fill="#ffbe92"/><path d="m419.351 320.112h-40.866c-2.829 0-5.123-2.294-5.123-5.123s2.293-5.123 5.123-5.123h40.866c2.829 0 5.123 2.294 5.123 5.123 0 2.83-2.294 5.123-5.123 5.123z" fill="#ddd9e4"/><path d="m332.171 315.363c-1.326 0-2.598-.527-3.535-1.464l-6.978-6.978c-1.953-1.953-1.953-5.119 0-7.071 1.951-1.952 5.119-1.952 7.07 0l3.442 3.442 12.28-12.28c1.951-1.952 5.119-1.952 7.07 0 1.953 1.953 1.953 5.119 0 7.071l-15.815 15.816c-.937.937-2.208 1.464-3.534 1.464z" fill="#b557ff"/><path d="m366.204 463.292c-2.762 0-5-2.238-5-5 0-3.317-2.698-6.016-6.016-6.016-2.762 0-5-2.238-5-5s2.238-5 5-5c3.317 0 6.016-2.698 6.016-6.016 0-2.762 2.238-5 5-5s5 2.238 5 5c0 3.317 2.698 6.016 6.016 6.016 2.762 0 5 2.238 5 5s-2.238 5-5 5c-3.317 0-6.016 2.698-6.016 6.016 0 2.761-2.238 5-5 5z" fill="#c182f9"/><path d="m342.949 89.621c-2.762 0-5-2.238-5-5 0-3.317-2.698-6.016-6.016-6.016-2.762 0-5-2.238-5-5s2.238-5 5-5c3.317 0 6.016-2.698 6.016-6.016 0-2.762 2.238-5 5-5s5 2.238 5 5c0 3.317 2.698 6.016 6.016 6.016 2.762 0 5 2.238 5 5s-2.238 5-5 5c-3.317 0-6.016 2.698-6.016 6.016 0 2.761-2.238 5-5 5z" fill="#ffe783"/><path d="m273.484 68.595c-2.762 0-5-2.238-5-5 0-3.317-2.698-6.016-6.016-6.016-2.762 0-5-2.238-5-5s2.238-5 5-5c3.317 0 6.016-2.698 6.016-6.016 0-2.762 2.238-5 5-5s5 2.238 5 5c0 3.317 2.698 6.016 6.016 6.016 2.762 0 5 2.238 5 5s-2.238 5-5 5c-3.317 0-6.016 2.698-6.016 6.016 0 2.762-2.238 5-5 5z" fill="#ffa052"/><path d="m164.937 446.521c-2.762 0-5-2.238-5-5 0-3.317-2.698-6.017-6.016-6.017-2.762 0-5-2.238-5-5s2.238-5 5-5c3.317 0 6.016-2.698 6.016-6.016 0-2.762 2.238-5 5-5s5 2.238 5 5c0 3.317 2.698 6.016 6.016 6.016 2.762 0 5 2.238 5 5s-2.238 5-5 5c-3.317 0-6.016 2.699-6.016 6.017 0 2.762-2.239 5-5 5z" fill="#ffa052"/></svg>